<svg xmlns="http://www.w3.org/2000/svg" xml:space="preserve" xmlns:xlink="http://www.w3.org/1999/xlink" style="max-width: 100%;height: auto;" width="1051.25" height="1226.4583333333" viewBox="0 0 1051.25 1226.4583333333">
<defs><mask id="qrmask"><g fill="#ffffff"><g>
<g transform="translate(337.125,105.125) scale(4.9783333333333)"><circle cx="3" cy="3" r="3"/></g>
<g transform="translate(395.125,105.125) scale(4.9783333333333)"><circle cx="3" cy="3" r="3"/></g>
<g transform="translate(424.125,105.125) scale(4.9783333333333)"><circle cx="3" cy="3" r="3"/></g>
<g transform="translate(453.125,105.125) scale(4.9783333333333)"><circle cx="3" cy="3" r="3"/></g>
<g transform="translate(511.125,105.125) scale(4.9783333333333)"><circle cx="3" cy="3" r="3"/></g>
<g transform="translate(540.125,105.125) scale(4.9783333333333)"><circle cx="3" cy="3" r="3"/></g>
<g transform="translate(569.125,105.125) scale(4.9783333333333)"><circle cx="3" cy="3" r="3"/></g>
<g transform="translate(598.125,105.125) scale(4.9783333333333)"><circle cx="3" cy="3" r="3"/></g>
<g transform="translate(627.125,105.125) scale(4.9783333333333)"><circle cx="3" cy="3" r="3"/></g>
<g transform="translate(685.125,105.125) scale(4.9783333333333)"><circle cx="3" cy="3" r="3"/></g>
<g transform="translate(337.125,134.125) scale(4.9783333333333)"><circle cx="3" cy="3" r="3"/></g>
<g transform="translate(366.125,134.125) scale(4.9783333333333)"><circle cx="3" cy="3" r="3"/></g>
<g transform="translate(395.125,134.125) scale(4.9783333333333)"><circle cx="3" cy="3" r="3"/></g>
<g transform="translate(453.125,134.125) scale(4.9783333333333)"><circle cx="3" cy="3" r="3"/></g>
<g transform="translate(511.125,134.125) scale(4.9783333333333)"><circle cx="3" cy="3" r="3"/></g>
<g transform="translate(540.125,134.125) scale(4.9783333333333)"><circle cx="3" cy="3" r="3"/></g>
<g transform="translate(598.125,134.125) scale(4.9783333333333)"><circle cx="3" cy="3" r="3"/></g>
<g transform="translate(656.125,134.125) scale(4.9783333333333)"><circle cx="3" cy="3" r="3"/></g>
<g transform="translate(337.125,163.125) scale(4.9783333333333)"><circle cx="3" cy="3" r="3"/></g>
<g transform="translate(424.125,163.125) scale(4.9783333333333)"><circle cx="3" cy="3" r="3"/></g>
<g transform="translate(453.125,163.125) scale(4.9783333333333)"><circle cx="3" cy="3" r="3"/></g>
<g transform="translate(540.125,163.125) scale(4.9783333333333)"><circle cx="3" cy="3" r="3"/></g>
<g transform="translate(627.125,163.125) scale(4.9783333333333)"><circle cx="3" cy="3" r="3"/></g>
<g transform="translate(656.125,163.125) scale(4.9783333333333)"><circle cx="3" cy="3" r="3"/></g>
<g transform="translate(685.125,163.125) scale(4.9783333333333)"><circle cx="3" cy="3" r="3"/></g>
<g transform="translate(395.125,192.125) scale(4.9783333333333)"><circle cx="3" cy="3" r="3"/></g>
<g transform="translate(482.125,192.125) scale(4.9783333333333)"><circle cx="3" cy="3" r="3"/></g>
<g transform="translate(511.125,192.125) scale(4.9783333333333)"><circle cx="3" cy="3" r="3"/></g>
<g transform="translate(569.125,192.125) scale(4.9783333333333)"><circle cx="3" cy="3" r="3"/></g>
<g transform="translate(598.125,192.125) scale(4.9783333333333)"><circle cx="3" cy="3" r="3"/></g>
<g transform="translate(656.125,192.125) scale(4.9783333333333)"><circle cx="3" cy="3" r="3"/></g>
<g transform="translate(366.125,221.125) scale(4.9783333333333)"><circle cx="3" cy="3" r="3"/></g>
<g transform="translate(395.125,221.125) scale(4.9783333333333)"><circle cx="3" cy="3" r="3"/></g>
<g transform="translate(424.125,221.125) scale(4.9783333333333)"><circle cx="3" cy="3" r="3"/></g>
<g transform="translate(453.125,221.125) scale(4.9783333333333)"><circle cx="3" cy="3" r="3"/></g>
<g transform="translate(569.125,221.125) scale(4.9783333333333)"><circle cx="3" cy="3" r="3"/></g>
<g transform="translate(627.125,221.125) scale(4.9783333333333)"><circle cx="3" cy="3" r="3"/></g>
<g transform="translate(656.125,221.125) scale(4.9783333333333)"><circle cx="3" cy="3" r="3"/></g>
<g transform="translate(337.125,250.125) scale(4.9783333333333)"><circle cx="3" cy="3" r="3"/></g>
<g transform="translate(366.125,250.125) scale(4.9783333333333)"><circle cx="3" cy="3" r="3"/></g>
<g transform="translate(395.125,250.125) scale(4.9783333333333)"><circle cx="3" cy="3" r="3"/></g>
<g transform="translate(453.125,250.125) scale(4.9783333333333)"><circle cx="3" cy="3" r="3"/></g>
<g transform="translate(482.125,250.125) scale(4.9783333333333)"><circle cx="3" cy="3" r="3"/></g>
<g transform="translate(540.125,250.125) scale(4.9783333333333)"><circle cx="3" cy="3" r="3"/></g>
<g transform="translate(569.125,250.125) scale(4.9783333333333)"><circle cx="3" cy="3" r="3"/></g>
<g transform="translate(627.125,250.125) scale(4.9783333333333)"><circle cx="3" cy="3" r="3"/></g>
<g transform="translate(337.125,279.125) scale(4.9783333333333)"><circle cx="3" cy="3" r="3"/></g>
<g transform="translate(395.125,279.125) scale(4.9783333333333)"><circle cx="3" cy="3" r="3"/></g>
<g transform="translate(453.125,279.125) scale(4.9783333333333)"><circle cx="3" cy="3" r="3"/></g>
<g transform="translate(511.125,279.125) scale(4.9783333333333)"><circle cx="3" cy="3" r="3"/></g>
<g transform="translate(569.125,279.125) scale(4.9783333333333)"><circle cx="3" cy="3" r="3"/></g>
<g transform="translate(627.125,279.125) scale(4.9783333333333)"><circle cx="3" cy="3" r="3"/></g>
<g transform="translate(685.125,279.125) scale(4.9783333333333)"><circle cx="3" cy="3" r="3"/></g>
<g transform="translate(337.125,308.125) scale(4.9783333333333)"><circle cx="3" cy="3" r="3"/></g>
<g transform="translate(366.125,308.125) scale(4.9783333333333)"><circle cx="3" cy="3" r="3"/></g>
<g transform="translate(395.125,308.125) scale(4.9783333333333)"><circle cx="3" cy="3" r="3"/></g>
<g transform="translate(424.125,308.125) scale(4.9783333333333)"><circle cx="3" cy="3" r="3"/></g>
<g transform="translate(453.125,308.125) scale(4.9783333333333)"><circle cx="3" cy="3" r="3"/></g>
<g transform="translate(482.125,308.125) scale(4.9783333333333)"><circle cx="3" cy="3" r="3"/></g>
<g transform="translate(540.125,308.125) scale(4.9783333333333)"><circle cx="3" cy="3" r="3"/></g>
<g transform="translate(569.125,308.125) scale(4.9783333333333)"><circle cx="3" cy="3" r="3"/></g>
<g transform="translate(656.125,308.125) scale(4.9783333333333)"><circle cx="3" cy="3" r="3"/></g>
<g transform="translate(163.125,337.125) scale(4.9783333333333)"><circle cx="3" cy="3" r="3"/></g>
<g transform="translate(192.125,337.125) scale(4.9783333333333)"><circle cx="3" cy="3" r="3"/></g>
<g transform="translate(221.125,337.125) scale(4.9783333333333)"><circle cx="3" cy="3" r="3"/></g>
<g transform="translate(279.125,337.125) scale(4.9783333333333)"><circle cx="3" cy="3" r="3"/></g>
<g transform="translate(337.125,337.125) scale(4.9783333333333)"><circle cx="3" cy="3" r="3"/></g>
<g transform="translate(395.125,337.125) scale(4.9783333333333)"><circle cx="3" cy="3" r="3"/></g>
<g transform="translate(453.125,337.125) scale(4.9783333333333)"><circle cx="3" cy="3" r="3"/></g>
<g transform="translate(482.125,337.125) scale(4.9783333333333)"><circle cx="3" cy="3" r="3"/></g>
<g transform="translate(511.125,337.125) scale(4.9783333333333)"><circle cx="3" cy="3" r="3"/></g>
<g transform="translate(540.125,337.125) scale(4.9783333333333)"><circle cx="3" cy="3" r="3"/></g>
<g transform="translate(627.125,337.125) scale(4.9783333333333)"><circle cx="3" cy="3" r="3"/></g>
<g transform="translate(714.125,337.125) scale(4.9783333333333)"><circle cx="3" cy="3" r="3"/></g>
<g transform="translate(743.125,337.125) scale(4.9783333333333)"><circle cx="3" cy="3" r="3"/></g>
<g transform="translate(772.125,337.125) scale(4.9783333333333)"><circle cx="3" cy="3" r="3"/></g>
<g transform="translate(859.125,337.125) scale(4.9783333333333)"><circle cx="3" cy="3" r="3"/></g>
<g transform="translate(888.125,337.125) scale(4.9783333333333)"><circle cx="3" cy="3" r="3"/></g>
<g transform="translate(917.125,337.125) scale(4.9783333333333)"><circle cx="3" cy="3" r="3"/></g>
<g transform="translate(134.125,366.125) scale(4.9783333333333)"><circle cx="3" cy="3" r="3"/></g>
<g transform="translate(192.125,366.125) scale(4.9783333333333)"><circle cx="3" cy="3" r="3"/></g>
<g transform="translate(366.125,366.125) scale(4.9783333333333)"><circle cx="3" cy="3" r="3"/></g>
<g transform="translate(395.125,366.125) scale(4.9783333333333)"><circle cx="3" cy="3" r="3"/></g>
<g transform="translate(424.125,366.125) scale(4.9783333333333)"><circle cx="3" cy="3" r="3"/></g>
<g transform="translate(453.125,366.125) scale(4.9783333333333)"><circle cx="3" cy="3" r="3"/></g>
<g transform="translate(540.125,366.125) scale(4.9783333333333)"><circle cx="3" cy="3" r="3"/></g>
<g transform="translate(569.125,366.125) scale(4.9783333333333)"><circle cx="3" cy="3" r="3"/></g>
<g transform="translate(598.125,366.125) scale(4.9783333333333)"><circle cx="3" cy="3" r="3"/></g>
<g transform="translate(714.125,366.125) scale(4.9783333333333)"><circle cx="3" cy="3" r="3"/></g>
<g transform="translate(743.125,366.125) scale(4.9783333333333)"><circle cx="3" cy="3" r="3"/></g>
<g transform="translate(772.125,366.125) scale(4.9783333333333)"><circle cx="3" cy="3" r="3"/></g>
<g transform="translate(801.125,366.125) scale(4.9783333333333)"><circle cx="3" cy="3" r="3"/></g>
<g transform="translate(830.125,366.125) scale(4.9783333333333)"><circle cx="3" cy="3" r="3"/></g>
<g transform="translate(859.125,366.125) scale(4.9783333333333)"><circle cx="3" cy="3" r="3"/></g>
<g transform="translate(917.125,366.125) scale(4.9783333333333)"><circle cx="3" cy="3" r="3"/></g>
<g transform="translate(134.125,395.125) scale(4.9783333333333)"><circle cx="3" cy="3" r="3"/></g>
<g transform="translate(192.125,395.125) scale(4.9783333333333)"><circle cx="3" cy="3" r="3"/></g>
<g transform="translate(221.125,395.125) scale(4.9783333333333)"><circle cx="3" cy="3" r="3"/></g>
<g transform="translate(250.125,395.125) scale(4.9783333333333)"><circle cx="3" cy="3" r="3"/></g>
<g transform="translate(279.125,395.125) scale(4.9783333333333)"><circle cx="3" cy="3" r="3"/></g>
<g transform="translate(395.125,395.125) scale(4.9783333333333)"><circle cx="3" cy="3" r="3"/></g>
<g transform="translate(453.125,395.125) scale(4.9783333333333)"><circle cx="3" cy="3" r="3"/></g>
<g transform="translate(482.125,395.125) scale(4.9783333333333)"><circle cx="3" cy="3" r="3"/></g>
<g transform="translate(511.125,395.125) scale(4.9783333333333)"><circle cx="3" cy="3" r="3"/></g>
<g transform="translate(540.125,395.125) scale(4.9783333333333)"><circle cx="3" cy="3" r="3"/></g>
<g transform="translate(714.125,395.125) scale(4.9783333333333)"><circle cx="3" cy="3" r="3"/></g>
<g transform="translate(743.125,395.125) scale(4.9783333333333)"><circle cx="3" cy="3" r="3"/></g>
<g transform="translate(801.125,395.125) scale(4.9783333333333)"><circle cx="3" cy="3" r="3"/></g>
<g transform="translate(859.125,395.125) scale(4.9783333333333)"><circle cx="3" cy="3" r="3"/></g>
<g transform="translate(163.125,424.125) scale(4.9783333333333)"><circle cx="3" cy="3" r="3"/></g>
<g transform="translate(192.125,424.125) scale(4.9783333333333)"><circle cx="3" cy="3" r="3"/></g>
<g transform="translate(337.125,424.125) scale(4.9783333333333)"><circle cx="3" cy="3" r="3"/></g>
<g transform="translate(366.125,424.125) scale(4.9783333333333)"><circle cx="3" cy="3" r="3"/></g>
<g transform="translate(395.125,424.125) scale(4.9783333333333)"><circle cx="3" cy="3" r="3"/></g>
<g transform="translate(424.125,424.125) scale(4.9783333333333)"><circle cx="3" cy="3" r="3"/></g>
<g transform="translate(540.125,424.125) scale(4.9783333333333)"><circle cx="3" cy="3" r="3"/></g>
<g transform="translate(598.125,424.125) scale(4.9783333333333)"><circle cx="3" cy="3" r="3"/></g>
<g transform="translate(656.125,424.125) scale(4.9783333333333)"><circle cx="3" cy="3" r="3"/></g>
<g transform="translate(685.125,424.125) scale(4.9783333333333)"><circle cx="3" cy="3" r="3"/></g>
<g transform="translate(714.125,424.125) scale(4.9783333333333)"><circle cx="3" cy="3" r="3"/></g>
<g transform="translate(743.125,424.125) scale(4.9783333333333)"><circle cx="3" cy="3" r="3"/></g>
<g transform="translate(801.125,424.125) scale(4.9783333333333)"><circle cx="3" cy="3" r="3"/></g>
<g transform="translate(830.125,424.125) scale(4.9783333333333)"><circle cx="3" cy="3" r="3"/></g>
<g transform="translate(888.125,424.125) scale(4.9783333333333)"><circle cx="3" cy="3" r="3"/></g>
<g transform="translate(134.125,453.125) scale(4.9783333333333)"><circle cx="3" cy="3" r="3"/></g>
<g transform="translate(163.125,453.125) scale(4.9783333333333)"><circle cx="3" cy="3" r="3"/></g>
<g transform="translate(192.125,453.125) scale(4.9783333333333)"><circle cx="3" cy="3" r="3"/></g>
<g transform="translate(221.125,453.125) scale(4.9783333333333)"><circle cx="3" cy="3" r="3"/></g>
<g transform="translate(250.125,453.125) scale(4.9783333333333)"><circle cx="3" cy="3" r="3"/></g>
<g transform="translate(279.125,453.125) scale(4.9783333333333)"><circle cx="3" cy="3" r="3"/></g>
<g transform="translate(308.125,453.125) scale(4.9783333333333)"><circle cx="3" cy="3" r="3"/></g>
<g transform="translate(337.125,453.125) scale(4.9783333333333)"><circle cx="3" cy="3" r="3"/></g>
<g transform="translate(424.125,453.125) scale(4.9783333333333)"><circle cx="3" cy="3" r="3"/></g>
<g transform="translate(482.125,453.125) scale(4.9783333333333)"><circle cx="3" cy="3" r="3"/></g>
<g transform="translate(511.125,453.125) scale(4.9783333333333)"><circle cx="3" cy="3" r="3"/></g>
<g transform="translate(569.125,453.125) scale(4.9783333333333)"><circle cx="3" cy="3" r="3"/></g>
<g transform="translate(685.125,453.125) scale(4.9783333333333)"><circle cx="3" cy="3" r="3"/></g>
<g transform="translate(714.125,453.125) scale(4.9783333333333)"><circle cx="3" cy="3" r="3"/></g>
<g transform="translate(772.125,453.125) scale(4.9783333333333)"><circle cx="3" cy="3" r="3"/></g>
<g transform="translate(859.125,453.125) scale(4.9783333333333)"><circle cx="3" cy="3" r="3"/></g>
<g transform="translate(888.125,453.125) scale(4.9783333333333)"><circle cx="3" cy="3" r="3"/></g>
<g transform="translate(917.125,453.125) scale(4.9783333333333)"><circle cx="3" cy="3" r="3"/></g>
<g transform="translate(163.125,482.125) scale(4.9783333333333)"><circle cx="3" cy="3" r="3"/></g>
<g transform="translate(192.125,482.125) scale(4.9783333333333)"><circle cx="3" cy="3" r="3"/></g>
<g transform="translate(221.125,482.125) scale(4.9783333333333)"><circle cx="3" cy="3" r="3"/></g>
<g transform="translate(250.125,482.125) scale(4.9783333333333)"><circle cx="3" cy="3" r="3"/></g>
<g transform="translate(308.125,482.125) scale(4.9783333333333)"><circle cx="3" cy="3" r="3"/></g>
<g transform="translate(366.125,482.125) scale(4.9783333333333)"><circle cx="3" cy="3" r="3"/></g>
<g transform="translate(395.125,482.125) scale(4.9783333333333)"><circle cx="3" cy="3" r="3"/></g>
<g transform="translate(453.125,482.125) scale(4.9783333333333)"><circle cx="3" cy="3" r="3"/></g>
<g transform="translate(540.125,482.125) scale(4.9783333333333)"><circle cx="3" cy="3" r="3"/></g>
<g transform="translate(598.125,482.125) scale(4.9783333333333)"><circle cx="3" cy="3" r="3"/></g>
<g transform="translate(627.125,482.125) scale(4.9783333333333)"><circle cx="3" cy="3" r="3"/></g>
<g transform="translate(656.125,482.125) scale(4.9783333333333)"><circle cx="3" cy="3" r="3"/></g>
<g transform="translate(685.125,482.125) scale(4.9783333333333)"><circle cx="3" cy="3" r="3"/></g>
<g transform="translate(714.125,482.125) scale(4.9783333333333)"><circle cx="3" cy="3" r="3"/></g>
<g transform="translate(743.125,482.125) scale(4.9783333333333)"><circle cx="3" cy="3" r="3"/></g>
<g transform="translate(801.125,482.125) scale(4.9783333333333)"><circle cx="3" cy="3" r="3"/></g>
<g transform="translate(830.125,482.125) scale(4.9783333333333)"><circle cx="3" cy="3" r="3"/></g>
<g transform="translate(888.125,482.125) scale(4.9783333333333)"><circle cx="3" cy="3" r="3"/></g>
<g transform="translate(917.125,482.125) scale(4.9783333333333)"><circle cx="3" cy="3" r="3"/></g>
<g transform="translate(221.125,511.125) scale(4.9783333333333)"><circle cx="3" cy="3" r="3"/></g>
<g transform="translate(250.125,511.125) scale(4.9783333333333)"><circle cx="3" cy="3" r="3"/></g>
<g transform="translate(279.125,511.125) scale(4.9783333333333)"><circle cx="3" cy="3" r="3"/></g>
<g transform="translate(337.125,511.125) scale(4.9783333333333)"><circle cx="3" cy="3" r="3"/></g>
<g transform="translate(366.125,511.125) scale(4.9783333333333)"><circle cx="3" cy="3" r="3"/></g>
<g transform="translate(395.125,511.125) scale(4.9783333333333)"><circle cx="3" cy="3" r="3"/></g>
<g transform="translate(453.125,511.125) scale(4.9783333333333)"><circle cx="3" cy="3" r="3"/></g>
<g transform="translate(685.125,511.125) scale(4.9783333333333)"><circle cx="3" cy="3" r="3"/></g>
<g transform="translate(743.125,511.125) scale(4.9783333333333)"><circle cx="3" cy="3" r="3"/></g>
<g transform="translate(772.125,511.125) scale(4.9783333333333)"><circle cx="3" cy="3" r="3"/></g>
<g transform="translate(105.125,540.125) scale(4.9783333333333)"><circle cx="3" cy="3" r="3"/></g>
<g transform="translate(134.125,540.125) scale(4.9783333333333)"><circle cx="3" cy="3" r="3"/></g>
<g transform="translate(163.125,540.125) scale(4.9783333333333)"><circle cx="3" cy="3" r="3"/></g>
<g transform="translate(250.125,540.125) scale(4.9783333333333)"><circle cx="3" cy="3" r="3"/></g>
<g transform="translate(308.125,540.125) scale(4.9783333333333)"><circle cx="3" cy="3" r="3"/></g>
<g transform="translate(337.125,540.125) scale(4.9783333333333)"><circle cx="3" cy="3" r="3"/></g>
<g transform="translate(453.125,540.125) scale(4.9783333333333)"><circle cx="3" cy="3" r="3"/></g>
<g transform="translate(540.125,540.125) scale(4.9783333333333)"><circle cx="3" cy="3" r="3"/></g>
<g transform="translate(714.125,540.125) scale(4.9783333333333)"><circle cx="3" cy="3" r="3"/></g>
<g transform="translate(801.125,540.125) scale(4.9783333333333)"><circle cx="3" cy="3" r="3"/></g>
<g transform="translate(830.125,540.125) scale(4.9783333333333)"><circle cx="3" cy="3" r="3"/></g>
<g transform="translate(105.125,569.125) scale(4.9783333333333)"><circle cx="3" cy="3" r="3"/></g>
<g transform="translate(134.125,569.125) scale(4.9783333333333)"><circle cx="3" cy="3" r="3"/></g>
<g transform="translate(163.125,569.125) scale(4.9783333333333)"><circle cx="3" cy="3" r="3"/></g>
<g transform="translate(221.125,569.125) scale(4.9783333333333)"><circle cx="3" cy="3" r="3"/></g>
<g transform="translate(250.125,569.125) scale(4.9783333333333)"><circle cx="3" cy="3" r="3"/></g>
<g transform="translate(279.125,569.125) scale(4.9783333333333)"><circle cx="3" cy="3" r="3"/></g>
<g transform="translate(308.125,569.125) scale(4.9783333333333)"><circle cx="3" cy="3" r="3"/></g>
<g transform="translate(337.125,569.125) scale(4.9783333333333)"><circle cx="3" cy="3" r="3"/></g>
<g transform="translate(366.125,569.125) scale(4.9783333333333)"><circle cx="3" cy="3" r="3"/></g>
<g transform="translate(424.125,569.125) scale(4.9783333333333)"><circle cx="3" cy="3" r="3"/></g>
<g transform="translate(482.125,569.125) scale(4.9783333333333)"><circle cx="3" cy="3" r="3"/></g>
<g transform="translate(569.125,569.125) scale(4.9783333333333)"><circle cx="3" cy="3" r="3"/></g>
<g transform="translate(598.125,569.125) scale(4.9783333333333)"><circle cx="3" cy="3" r="3"/></g>
<g transform="translate(627.125,569.125) scale(4.9783333333333)"><circle cx="3" cy="3" r="3"/></g>
<g transform="translate(685.125,569.125) scale(4.9783333333333)"><circle cx="3" cy="3" r="3"/></g>
<g transform="translate(772.125,569.125) scale(4.9783333333333)"><circle cx="3" cy="3" r="3"/></g>
<g transform="translate(830.125,569.125) scale(4.9783333333333)"><circle cx="3" cy="3" r="3"/></g>
<g transform="translate(859.125,569.125) scale(4.9783333333333)"><circle cx="3" cy="3" r="3"/></g>
<g transform="translate(888.125,569.125) scale(4.9783333333333)"><circle cx="3" cy="3" r="3"/></g>
<g transform="translate(917.125,569.125) scale(4.9783333333333)"><circle cx="3" cy="3" r="3"/></g>
<g transform="translate(105.125,598.125) scale(4.9783333333333)"><circle cx="3" cy="3" r="3"/></g>
<g transform="translate(192.125,598.125) scale(4.9783333333333)"><circle cx="3" cy="3" r="3"/></g>
<g transform="translate(221.125,598.125) scale(4.9783333333333)"><circle cx="3" cy="3" r="3"/></g>
<g transform="translate(250.125,598.125) scale(4.9783333333333)"><circle cx="3" cy="3" r="3"/></g>
<g transform="translate(308.125,598.125) scale(4.9783333333333)"><circle cx="3" cy="3" r="3"/></g>
<g transform="translate(453.125,598.125) scale(4.9783333333333)"><circle cx="3" cy="3" r="3"/></g>
<g transform="translate(540.125,598.125) scale(4.9783333333333)"><circle cx="3" cy="3" r="3"/></g>
<g transform="translate(656.125,598.125) scale(4.9783333333333)"><circle cx="3" cy="3" r="3"/></g>
<g transform="translate(801.125,598.125) scale(4.9783333333333)"><circle cx="3" cy="3" r="3"/></g>
<g transform="translate(859.125,598.125) scale(4.9783333333333)"><circle cx="3" cy="3" r="3"/></g>
<g transform="translate(888.125,598.125) scale(4.9783333333333)"><circle cx="3" cy="3" r="3"/></g>
<g transform="translate(917.125,598.125) scale(4.9783333333333)"><circle cx="3" cy="3" r="3"/></g>
<g transform="translate(105.125,627.125) scale(4.9783333333333)"><circle cx="3" cy="3" r="3"/></g>
<g transform="translate(163.125,627.125) scale(4.9783333333333)"><circle cx="3" cy="3" r="3"/></g>
<g transform="translate(192.125,627.125) scale(4.9783333333333)"><circle cx="3" cy="3" r="3"/></g>
<g transform="translate(221.125,627.125) scale(4.9783333333333)"><circle cx="3" cy="3" r="3"/></g>
<g transform="translate(250.125,627.125) scale(4.9783333333333)"><circle cx="3" cy="3" r="3"/></g>
<g transform="translate(279.125,627.125) scale(4.9783333333333)"><circle cx="3" cy="3" r="3"/></g>
<g transform="translate(366.125,627.125) scale(4.9783333333333)"><circle cx="3" cy="3" r="3"/></g>
<g transform="translate(424.125,627.125) scale(4.9783333333333)"><circle cx="3" cy="3" r="3"/></g>
<g transform="translate(453.125,627.125) scale(4.9783333333333)"><circle cx="3" cy="3" r="3"/></g>
<g transform="translate(482.125,627.125) scale(4.9783333333333)"><circle cx="3" cy="3" r="3"/></g>
<g transform="translate(627.125,627.125) scale(4.9783333333333)"><circle cx="3" cy="3" r="3"/></g>
<g transform="translate(685.125,627.125) scale(4.9783333333333)"><circle cx="3" cy="3" r="3"/></g>
<g transform="translate(743.125,627.125) scale(4.9783333333333)"><circle cx="3" cy="3" r="3"/></g>
<g transform="translate(772.125,627.125) scale(4.9783333333333)"><circle cx="3" cy="3" r="3"/></g>
<g transform="translate(801.125,627.125) scale(4.9783333333333)"><circle cx="3" cy="3" r="3"/></g>
<g transform="translate(830.125,627.125) scale(4.9783333333333)"><circle cx="3" cy="3" r="3"/></g>
<g transform="translate(859.125,627.125) scale(4.9783333333333)"><circle cx="3" cy="3" r="3"/></g>
<g transform="translate(105.125,656.125) scale(4.9783333333333)"><circle cx="3" cy="3" r="3"/></g>
<g transform="translate(221.125,656.125) scale(4.9783333333333)"><circle cx="3" cy="3" r="3"/></g>
<g transform="translate(308.125,656.125) scale(4.9783333333333)"><circle cx="3" cy="3" r="3"/></g>
<g transform="translate(337.125,656.125) scale(4.9783333333333)"><circle cx="3" cy="3" r="3"/></g>
<g transform="translate(395.125,656.125) scale(4.9783333333333)"><circle cx="3" cy="3" r="3"/></g>
<g transform="translate(424.125,656.125) scale(4.9783333333333)"><circle cx="3" cy="3" r="3"/></g>
<g transform="translate(453.125,656.125) scale(4.9783333333333)"><circle cx="3" cy="3" r="3"/></g>
<g transform="translate(482.125,656.125) scale(4.9783333333333)"><circle cx="3" cy="3" r="3"/></g>
<g transform="translate(511.125,656.125) scale(4.9783333333333)"><circle cx="3" cy="3" r="3"/></g>
<g transform="translate(540.125,656.125) scale(4.9783333333333)"><circle cx="3" cy="3" r="3"/></g>
<g transform="translate(569.125,656.125) scale(4.9783333333333)"><circle cx="3" cy="3" r="3"/></g>
<g transform="translate(656.125,656.125) scale(4.9783333333333)"><circle cx="3" cy="3" r="3"/></g>
<g transform="translate(685.125,656.125) scale(4.9783333333333)"><circle cx="3" cy="3" r="3"/></g>
<g transform="translate(743.125,656.125) scale(4.9783333333333)"><circle cx="3" cy="3" r="3"/></g>
<g transform="translate(888.125,656.125) scale(4.9783333333333)"><circle cx="3" cy="3" r="3"/></g>
<g transform="translate(917.125,656.125) scale(4.9783333333333)"><circle cx="3" cy="3" r="3"/></g>
<g transform="translate(105.125,685.125) scale(4.9783333333333)"><circle cx="3" cy="3" r="3"/></g>
<g transform="translate(192.125,685.125) scale(4.9783333333333)"><circle cx="3" cy="3" r="3"/></g>
<g transform="translate(250.125,685.125) scale(4.9783333333333)"><circle cx="3" cy="3" r="3"/></g>
<g transform="translate(279.125,685.125) scale(4.9783333333333)"><circle cx="3" cy="3" r="3"/></g>
<g transform="translate(337.125,685.125) scale(4.9783333333333)"><circle cx="3" cy="3" r="3"/></g>
<g transform="translate(453.125,685.125) scale(4.9783333333333)"><circle cx="3" cy="3" r="3"/></g>
<g transform="translate(511.125,685.125) scale(4.9783333333333)"><circle cx="3" cy="3" r="3"/></g>
<g transform="translate(540.125,685.125) scale(4.9783333333333)"><circle cx="3" cy="3" r="3"/></g>
<g transform="translate(569.125,685.125) scale(4.9783333333333)"><circle cx="3" cy="3" r="3"/></g>
<g transform="translate(685.125,685.125) scale(4.9783333333333)"><circle cx="3" cy="3" r="3"/></g>
<g transform="translate(714.125,685.125) scale(4.9783333333333)"><circle cx="3" cy="3" r="3"/></g>
<g transform="translate(743.125,685.125) scale(4.9783333333333)"><circle cx="3" cy="3" r="3"/></g>
<g transform="translate(772.125,685.125) scale(4.9783333333333)"><circle cx="3" cy="3" r="3"/></g>
<g transform="translate(801.125,685.125) scale(4.9783333333333)"><circle cx="3" cy="3" r="3"/></g>
<g transform="translate(859.125,685.125) scale(4.9783333333333)"><circle cx="3" cy="3" r="3"/></g>
<g transform="translate(337.125,714.125) scale(4.9783333333333)"><circle cx="3" cy="3" r="3"/></g>
<g transform="translate(366.125,714.125) scale(4.9783333333333)"><circle cx="3" cy="3" r="3"/></g>
<g transform="translate(395.125,714.125) scale(4.9783333333333)"><circle cx="3" cy="3" r="3"/></g>
<g transform="translate(424.125,714.125) scale(4.9783333333333)"><circle cx="3" cy="3" r="3"/></g>
<g transform="translate(453.125,714.125) scale(4.9783333333333)"><circle cx="3" cy="3" r="3"/></g>
<g transform="translate(511.125,714.125) scale(4.9783333333333)"><circle cx="3" cy="3" r="3"/></g>
<g transform="translate(540.125,714.125) scale(4.9783333333333)"><circle cx="3" cy="3" r="3"/></g>
<g transform="translate(627.125,714.125) scale(4.9783333333333)"><circle cx="3" cy="3" r="3"/></g>
<g transform="translate(656.125,714.125) scale(4.9783333333333)"><circle cx="3" cy="3" r="3"/></g>
<g transform="translate(685.125,714.125) scale(4.9783333333333)"><circle cx="3" cy="3" r="3"/></g>
<g transform="translate(801.125,714.125) scale(4.9783333333333)"><circle cx="3" cy="3" r="3"/></g>
<g transform="translate(830.125,714.125) scale(4.9783333333333)"><circle cx="3" cy="3" r="3"/></g>
<g transform="translate(888.125,714.125) scale(4.9783333333333)"><circle cx="3" cy="3" r="3"/></g>
<g transform="translate(917.125,714.125) scale(4.9783333333333)"><circle cx="3" cy="3" r="3"/></g>
<g transform="translate(366.125,743.125) scale(4.9783333333333)"><circle cx="3" cy="3" r="3"/></g>
<g transform="translate(424.125,743.125) scale(4.9783333333333)"><circle cx="3" cy="3" r="3"/></g>
<g transform="translate(482.125,743.125) scale(4.9783333333333)"><circle cx="3" cy="3" r="3"/></g>
<g transform="translate(540.125,743.125) scale(4.9783333333333)"><circle cx="3" cy="3" r="3"/></g>
<g transform="translate(598.125,743.125) scale(4.9783333333333)"><circle cx="3" cy="3" r="3"/></g>
<g transform="translate(656.125,743.125) scale(4.9783333333333)"><circle cx="3" cy="3" r="3"/></g>
<g transform="translate(685.125,743.125) scale(4.9783333333333)"><circle cx="3" cy="3" r="3"/></g>
<g transform="translate(743.125,743.125) scale(4.9783333333333)"><circle cx="3" cy="3" r="3"/></g>
<g transform="translate(801.125,743.125) scale(4.9783333333333)"><circle cx="3" cy="3" r="3"/></g>
<g transform="translate(366.125,772.125) scale(4.9783333333333)"><circle cx="3" cy="3" r="3"/></g>
<g transform="translate(482.125,772.125) scale(4.9783333333333)"><circle cx="3" cy="3" r="3"/></g>
<g transform="translate(511.125,772.125) scale(4.9783333333333)"><circle cx="3" cy="3" r="3"/></g>
<g transform="translate(540.125,772.125) scale(4.9783333333333)"><circle cx="3" cy="3" r="3"/></g>
<g transform="translate(656.125,772.125) scale(4.9783333333333)"><circle cx="3" cy="3" r="3"/></g>
<g transform="translate(685.125,772.125) scale(4.9783333333333)"><circle cx="3" cy="3" r="3"/></g>
<g transform="translate(801.125,772.125) scale(4.9783333333333)"><circle cx="3" cy="3" r="3"/></g>
<g transform="translate(830.125,772.125) scale(4.9783333333333)"><circle cx="3" cy="3" r="3"/></g>
<g transform="translate(888.125,772.125) scale(4.9783333333333)"><circle cx="3" cy="3" r="3"/></g>
<g transform="translate(337.125,801.125) scale(4.9783333333333)"><circle cx="3" cy="3" r="3"/></g>
<g transform="translate(511.125,801.125) scale(4.9783333333333)"><circle cx="3" cy="3" r="3"/></g>
<g transform="translate(540.125,801.125) scale(4.9783333333333)"><circle cx="3" cy="3" r="3"/></g>
<g transform="translate(569.125,801.125) scale(4.9783333333333)"><circle cx="3" cy="3" r="3"/></g>
<g transform="translate(598.125,801.125) scale(4.9783333333333)"><circle cx="3" cy="3" r="3"/></g>
<g transform="translate(685.125,801.125) scale(4.9783333333333)"><circle cx="3" cy="3" r="3"/></g>
<g transform="translate(714.125,801.125) scale(4.9783333333333)"><circle cx="3" cy="3" r="3"/></g>
<g transform="translate(743.125,801.125) scale(4.9783333333333)"><circle cx="3" cy="3" r="3"/></g>
<g transform="translate(772.125,801.125) scale(4.9783333333333)"><circle cx="3" cy="3" r="3"/></g>
<g transform="translate(801.125,801.125) scale(4.9783333333333)"><circle cx="3" cy="3" r="3"/></g>
<g transform="translate(830.125,801.125) scale(4.9783333333333)"><circle cx="3" cy="3" r="3"/></g>
<g transform="translate(859.125,801.125) scale(4.9783333333333)"><circle cx="3" cy="3" r="3"/></g>
<g transform="translate(917.125,801.125) scale(4.9783333333333)"><circle cx="3" cy="3" r="3"/></g>
<g transform="translate(337.125,830.125) scale(4.9783333333333)"><circle cx="3" cy="3" r="3"/></g>
<g transform="translate(366.125,830.125) scale(4.9783333333333)"><circle cx="3" cy="3" r="3"/></g>
<g transform="translate(424.125,830.125) scale(4.9783333333333)"><circle cx="3" cy="3" r="3"/></g>
<g transform="translate(453.125,830.125) scale(4.9783333333333)"><circle cx="3" cy="3" r="3"/></g>
<g transform="translate(511.125,830.125) scale(4.9783333333333)"><circle cx="3" cy="3" r="3"/></g>
<g transform="translate(540.125,830.125) scale(4.9783333333333)"><circle cx="3" cy="3" r="3"/></g>
<g transform="translate(569.125,830.125) scale(4.9783333333333)"><circle cx="3" cy="3" r="3"/></g>
<g transform="translate(656.125,830.125) scale(4.9783333333333)"><circle cx="3" cy="3" r="3"/></g>
<g transform="translate(685.125,830.125) scale(4.9783333333333)"><circle cx="3" cy="3" r="3"/></g>
<g transform="translate(714.125,830.125) scale(4.9783333333333)"><circle cx="3" cy="3" r="3"/></g>
<g transform="translate(772.125,830.125) scale(4.9783333333333)"><circle cx="3" cy="3" r="3"/></g>
<g transform="translate(830.125,830.125) scale(4.9783333333333)"><circle cx="3" cy="3" r="3"/></g>
<g transform="translate(859.125,830.125) scale(4.9783333333333)"><circle cx="3" cy="3" r="3"/></g>
<g transform="translate(337.125,859.125) scale(4.9783333333333)"><circle cx="3" cy="3" r="3"/></g>
<g transform="translate(366.125,859.125) scale(4.9783333333333)"><circle cx="3" cy="3" r="3"/></g>
<g transform="translate(453.125,859.125) scale(4.9783333333333)"><circle cx="3" cy="3" r="3"/></g>
<g transform="translate(511.125,859.125) scale(4.9783333333333)"><circle cx="3" cy="3" r="3"/></g>
<g transform="translate(569.125,859.125) scale(4.9783333333333)"><circle cx="3" cy="3" r="3"/></g>
<g transform="translate(627.125,859.125) scale(4.9783333333333)"><circle cx="3" cy="3" r="3"/></g>
<g transform="translate(656.125,859.125) scale(4.9783333333333)"><circle cx="3" cy="3" r="3"/></g>
<g transform="translate(685.125,859.125) scale(4.9783333333333)"><circle cx="3" cy="3" r="3"/></g>
<g transform="translate(714.125,859.125) scale(4.9783333333333)"><circle cx="3" cy="3" r="3"/></g>
<g transform="translate(743.125,859.125) scale(4.9783333333333)"><circle cx="3" cy="3" r="3"/></g>
<g transform="translate(772.125,859.125) scale(4.9783333333333)"><circle cx="3" cy="3" r="3"/></g>
<g transform="translate(801.125,859.125) scale(4.9783333333333)"><circle cx="3" cy="3" r="3"/></g>
<g transform="translate(830.125,859.125) scale(4.9783333333333)"><circle cx="3" cy="3" r="3"/></g>
<g transform="translate(859.125,859.125) scale(4.9783333333333)"><circle cx="3" cy="3" r="3"/></g>
<g transform="translate(888.125,859.125) scale(4.9783333333333)"><circle cx="3" cy="3" r="3"/></g>
<g transform="translate(395.125,888.125) scale(4.9783333333333)"><circle cx="3" cy="3" r="3"/></g>
<g transform="translate(424.125,888.125) scale(4.9783333333333)"><circle cx="3" cy="3" r="3"/></g>
<g transform="translate(482.125,888.125) scale(4.9783333333333)"><circle cx="3" cy="3" r="3"/></g>
<g transform="translate(511.125,888.125) scale(4.9783333333333)"><circle cx="3" cy="3" r="3"/></g>
<g transform="translate(656.125,888.125) scale(4.9783333333333)"><circle cx="3" cy="3" r="3"/></g>
<g transform="translate(685.125,888.125) scale(4.9783333333333)"><circle cx="3" cy="3" r="3"/></g>
<g transform="translate(714.125,888.125) scale(4.9783333333333)"><circle cx="3" cy="3" r="3"/></g>
<g transform="translate(801.125,888.125) scale(4.9783333333333)"><circle cx="3" cy="3" r="3"/></g>
<g transform="translate(888.125,888.125) scale(4.9783333333333)"><circle cx="3" cy="3" r="3"/></g>
<g transform="translate(395.125,917.125) scale(4.9783333333333)"><circle cx="3" cy="3" r="3"/></g>
<g transform="translate(540.125,917.125) scale(4.9783333333333)"><circle cx="3" cy="3" r="3"/></g>
<g transform="translate(569.125,917.125) scale(4.9783333333333)"><circle cx="3" cy="3" r="3"/></g>
<g transform="translate(598.125,917.125) scale(4.9783333333333)"><circle cx="3" cy="3" r="3"/></g>
<g transform="translate(656.125,917.125) scale(4.9783333333333)"><circle cx="3" cy="3" r="3"/></g>
<g transform="translate(801.125,917.125) scale(4.9783333333333)"><circle cx="3" cy="3" r="3"/></g>
<g transform="translate(830.125,917.125) scale(4.9783333333333)"><circle cx="3" cy="3" r="3"/></g>
<g transform="translate(859.125,917.125) scale(4.9783333333333)"><circle cx="3" cy="3" r="3"/></g>
</g></g></mask></defs>
<rect width="973.28229166667" height="973.28229166667" fill="#f6dbac" x="43.802083333333" y="43.802083333333" />
<g fill="#259fa5" transform="scale(43.802083333333)"><path d="M22.7,0H1.3C0.6,0,0,0.6,0,1.3v25.3C0,27.4,0.6,28,1.3,28h21.3c0.7,0,1.3-0.6,1.3-1.3V1.3C24,0.6,23.4,0,22.7,0 z M23,22c0,0.6-0.5,1-1,1H2c-0.6,0-1-0.5-1-1V2c0-0.6,0.5-1,1-1h20c0.6,0,1,0.5,1,1V22z"/></g>
<rect x="0" y="0" width="1051.25" height="1226.4583333333" mask="url(#qrmask)" fill="#176e82" />
<g><g transform="translate(105.125,105.125)"  fill="#176e82"><g transform="scale(14.5)"><path d="M0,7L0,7c0,3.9,3.1,7,7,7h0c3.9,0,7-3.1,7-7v0c0-3.9-3.1-7-7-7h0C3.1,0,0,3.1,0,7z M7,12L7,12c-2.8,0-5-2.2-5-5v0 c0-2.8,2.2-5,5-5h0c2.8,0,5,2.2,5,5v0C12,9.8,9.8,12,7,12z"/></g></g>
<g transform="translate(163.125,163.125)"  fill="#176e82"><g transform="scale(14.5)"><circle cx="3" cy="3" r="3"/></g></g>
<g transform="translate(743.125,105.125)"  fill="#176e82"><g transform="scale(14.5)"><path d="M0,7L0,7c0,3.9,3.1,7,7,7h0c3.9,0,7-3.1,7-7v0c0-3.9-3.1-7-7-7h0C3.1,0,0,3.1,0,7z M7,12L7,12c-2.8,0-5-2.2-5-5v0 c0-2.8,2.2-5,5-5h0c2.8,0,5,2.2,5,5v0C12,9.8,9.8,12,7,12z"/></g></g>
<g transform="translate(801.125,163.125)"  fill="#176e82"><g transform="scale(14.5)"><circle cx="3" cy="3" r="3"/></g></g>
<g transform="translate(105.125,743.125)"  fill="#176e82"><g transform="scale(14.5)"><path d="M0,7L0,7c0,3.9,3.1,7,7,7h0c3.9,0,7-3.1,7-7v0c0-3.9-3.1-7-7-7h0C3.1,0,0,3.1,0,7z M7,12L7,12c-2.8,0-5-2.2-5-5v0 c0-2.8,2.2-5,5-5h0c2.8,0,5,2.2,5,5v0C12,9.8,9.8,12,7,12z"/></g></g>
<g transform="translate(163.125,801.125)"  fill="#176e82"><g transform="scale(14.5)"><circle cx="3" cy="3" r="3"/></g></g></g>
<text fill="#FFFFFF" font-family="Arial, Helvetica, sans-serif" font-size="48.664114583333px" text-anchor="middle" x="525.625" y="128.22217548077" transform="translate(0,1007.4479166667)">TONY&#39;S PORTFOLIO</text></svg>