<svg xmlns="http://www.w3.org/2000/svg" xml:space="preserve" xmlns:xlink="http://www.w3.org/1999/xlink" style="max-width: 100%;height: auto;" width="1005.3333333333" height="1047.2222222222" viewBox="0 0 1005.3333333333 1047.2222222222">
<defs><mask id="qrmask"><g fill="#ffffff"><g>
<g transform="translate(294.66666666667,38.666666666667) scale(5.4933333333333)"><circle cx="3" cy="3" r="3"/></g>
<g transform="translate(358.66666666667,38.666666666667) scale(5.4933333333333)"><circle cx="3" cy="3" r="3"/></g>
<g transform="translate(390.66666666667,38.666666666667) scale(5.4933333333333)"><circle cx="3" cy="3" r="3"/></g>
<g transform="translate(422.66666666667,38.666666666667) scale(5.4933333333333)"><circle cx="3" cy="3" r="3"/></g>
<g transform="translate(486.66666666667,38.666666666667) scale(5.4933333333333)"><circle cx="3" cy="3" r="3"/></g>
<g transform="translate(518.66666666667,38.666666666667) scale(5.4933333333333)"><circle cx="3" cy="3" r="3"/></g>
<g transform="translate(550.66666666667,38.666666666667) scale(5.4933333333333)"><circle cx="3" cy="3" r="3"/></g>
<g transform="translate(582.66666666667,38.666666666667) scale(5.4933333333333)"><circle cx="3" cy="3" r="3"/></g>
<g transform="translate(614.66666666667,38.666666666667) scale(5.4933333333333)"><circle cx="3" cy="3" r="3"/></g>
<g transform="translate(678.66666666667,38.666666666667) scale(5.4933333333333)"><circle cx="3" cy="3" r="3"/></g>
<g transform="translate(294.66666666667,70.666666666667) scale(5.4933333333333)"><circle cx="3" cy="3" r="3"/></g>
<g transform="translate(326.66666666667,70.666666666667) scale(5.4933333333333)"><circle cx="3" cy="3" r="3"/></g>
<g transform="translate(358.66666666667,70.666666666667) scale(5.4933333333333)"><circle cx="3" cy="3" r="3"/></g>
<g transform="translate(422.66666666667,70.666666666667) scale(5.4933333333333)"><circle cx="3" cy="3" r="3"/></g>
<g transform="translate(486.66666666667,70.666666666667) scale(5.4933333333333)"><circle cx="3" cy="3" r="3"/></g>
<g transform="translate(518.66666666667,70.666666666667) scale(5.4933333333333)"><circle cx="3" cy="3" r="3"/></g>
<g transform="translate(582.66666666667,70.666666666667) scale(5.4933333333333)"><circle cx="3" cy="3" r="3"/></g>
<g transform="translate(646.66666666667,70.666666666667) scale(5.4933333333333)"><circle cx="3" cy="3" r="3"/></g>
<g transform="translate(294.66666666667,102.66666666667) scale(5.4933333333333)"><circle cx="3" cy="3" r="3"/></g>
<g transform="translate(390.66666666667,102.66666666667) scale(5.4933333333333)"><circle cx="3" cy="3" r="3"/></g>
<g transform="translate(422.66666666667,102.66666666667) scale(5.4933333333333)"><circle cx="3" cy="3" r="3"/></g>
<g transform="translate(518.66666666667,102.66666666667) scale(5.4933333333333)"><circle cx="3" cy="3" r="3"/></g>
<g transform="translate(614.66666666667,102.66666666667) scale(5.4933333333333)"><circle cx="3" cy="3" r="3"/></g>
<g transform="translate(646.66666666667,102.66666666667) scale(5.4933333333333)"><circle cx="3" cy="3" r="3"/></g>
<g transform="translate(678.66666666667,102.66666666667) scale(5.4933333333333)"><circle cx="3" cy="3" r="3"/></g>
<g transform="translate(358.66666666667,134.66666666667) scale(5.4933333333333)"><circle cx="3" cy="3" r="3"/></g>
<g transform="translate(454.66666666667,134.66666666667) scale(5.4933333333333)"><circle cx="3" cy="3" r="3"/></g>
<g transform="translate(486.66666666667,134.66666666667) scale(5.4933333333333)"><circle cx="3" cy="3" r="3"/></g>
<g transform="translate(550.66666666667,134.66666666667) scale(5.4933333333333)"><circle cx="3" cy="3" r="3"/></g>
<g transform="translate(582.66666666667,134.66666666667) scale(5.4933333333333)"><circle cx="3" cy="3" r="3"/></g>
<g transform="translate(646.66666666667,134.66666666667) scale(5.4933333333333)"><circle cx="3" cy="3" r="3"/></g>
<g transform="translate(326.66666666667,166.66666666667) scale(5.4933333333333)"><circle cx="3" cy="3" r="3"/></g>
<g transform="translate(358.66666666667,166.66666666667) scale(5.4933333333333)"><circle cx="3" cy="3" r="3"/></g>
<g transform="translate(390.66666666667,166.66666666667) scale(5.4933333333333)"><circle cx="3" cy="3" r="3"/></g>
<g transform="translate(422.66666666667,166.66666666667) scale(5.4933333333333)"><circle cx="3" cy="3" r="3"/></g>
<g transform="translate(550.66666666667,166.66666666667) scale(5.4933333333333)"><circle cx="3" cy="3" r="3"/></g>
<g transform="translate(614.66666666667,166.66666666667) scale(5.4933333333333)"><circle cx="3" cy="3" r="3"/></g>
<g transform="translate(646.66666666667,166.66666666667) scale(5.4933333333333)"><circle cx="3" cy="3" r="3"/></g>
<g transform="translate(294.66666666667,198.66666666667) scale(5.4933333333333)"><circle cx="3" cy="3" r="3"/></g>
<g transform="translate(326.66666666667,198.66666666667) scale(5.4933333333333)"><circle cx="3" cy="3" r="3"/></g>
<g transform="translate(358.66666666667,198.66666666667) scale(5.4933333333333)"><circle cx="3" cy="3" r="3"/></g>
<g transform="translate(422.66666666667,198.66666666667) scale(5.4933333333333)"><circle cx="3" cy="3" r="3"/></g>
<g transform="translate(454.66666666667,198.66666666667) scale(5.4933333333333)"><circle cx="3" cy="3" r="3"/></g>
<g transform="translate(518.66666666667,198.66666666667) scale(5.4933333333333)"><circle cx="3" cy="3" r="3"/></g>
<g transform="translate(550.66666666667,198.66666666667) scale(5.4933333333333)"><circle cx="3" cy="3" r="3"/></g>
<g transform="translate(614.66666666667,198.66666666667) scale(5.4933333333333)"><circle cx="3" cy="3" r="3"/></g>
<g transform="translate(294.66666666667,230.66666666667) scale(5.4933333333333)"><circle cx="3" cy="3" r="3"/></g>
<g transform="translate(358.66666666667,230.66666666667) scale(5.4933333333333)"><circle cx="3" cy="3" r="3"/></g>
<g transform="translate(422.66666666667,230.66666666667) scale(5.4933333333333)"><circle cx="3" cy="3" r="3"/></g>
<g transform="translate(486.66666666667,230.66666666667) scale(5.4933333333333)"><circle cx="3" cy="3" r="3"/></g>
<g transform="translate(550.66666666667,230.66666666667) scale(5.4933333333333)"><circle cx="3" cy="3" r="3"/></g>
<g transform="translate(614.66666666667,230.66666666667) scale(5.4933333333333)"><circle cx="3" cy="3" r="3"/></g>
<g transform="translate(678.66666666667,230.66666666667) scale(5.4933333333333)"><circle cx="3" cy="3" r="3"/></g>
<g transform="translate(294.66666666667,262.66666666667) scale(5.4933333333333)"><circle cx="3" cy="3" r="3"/></g>
<g transform="translate(326.66666666667,262.66666666667) scale(5.4933333333333)"><circle cx="3" cy="3" r="3"/></g>
<g transform="translate(358.66666666667,262.66666666667) scale(5.4933333333333)"><circle cx="3" cy="3" r="3"/></g>
<g transform="translate(390.66666666667,262.66666666667) scale(5.4933333333333)"><circle cx="3" cy="3" r="3"/></g>
<g transform="translate(422.66666666667,262.66666666667) scale(5.4933333333333)"><circle cx="3" cy="3" r="3"/></g>
<g transform="translate(454.66666666667,262.66666666667) scale(5.4933333333333)"><circle cx="3" cy="3" r="3"/></g>
<g transform="translate(518.66666666667,262.66666666667) scale(5.4933333333333)"><circle cx="3" cy="3" r="3"/></g>
<g transform="translate(550.66666666667,262.66666666667) scale(5.4933333333333)"><circle cx="3" cy="3" r="3"/></g>
<g transform="translate(646.66666666667,262.66666666667) scale(5.4933333333333)"><circle cx="3" cy="3" r="3"/></g>
<g transform="translate(102.66666666667,294.66666666667) scale(5.4933333333333)"><circle cx="3" cy="3" r="3"/></g>
<g transform="translate(134.66666666667,294.66666666667) scale(5.4933333333333)"><circle cx="3" cy="3" r="3"/></g>
<g transform="translate(166.66666666667,294.66666666667) scale(5.4933333333333)"><circle cx="3" cy="3" r="3"/></g>
<g transform="translate(230.66666666667,294.66666666667) scale(5.4933333333333)"><circle cx="3" cy="3" r="3"/></g>
<g transform="translate(294.66666666667,294.66666666667) scale(5.4933333333333)"><circle cx="3" cy="3" r="3"/></g>
<g transform="translate(358.66666666667,294.66666666667) scale(5.4933333333333)"><circle cx="3" cy="3" r="3"/></g>
<g transform="translate(422.66666666667,294.66666666667) scale(5.4933333333333)"><circle cx="3" cy="3" r="3"/></g>
<g transform="translate(454.66666666667,294.66666666667) scale(5.4933333333333)"><circle cx="3" cy="3" r="3"/></g>
<g transform="translate(486.66666666667,294.66666666667) scale(5.4933333333333)"><circle cx="3" cy="3" r="3"/></g>
<g transform="translate(518.66666666667,294.66666666667) scale(5.4933333333333)"><circle cx="3" cy="3" r="3"/></g>
<g transform="translate(614.66666666667,294.66666666667) scale(5.4933333333333)"><circle cx="3" cy="3" r="3"/></g>
<g transform="translate(710.66666666667,294.66666666667) scale(5.4933333333333)"><circle cx="3" cy="3" r="3"/></g>
<g transform="translate(742.66666666667,294.66666666667) scale(5.4933333333333)"><circle cx="3" cy="3" r="3"/></g>
<g transform="translate(774.66666666667,294.66666666667) scale(5.4933333333333)"><circle cx="3" cy="3" r="3"/></g>
<g transform="translate(870.66666666667,294.66666666667) scale(5.4933333333333)"><circle cx="3" cy="3" r="3"/></g>
<g transform="translate(902.66666666667,294.66666666667) scale(5.4933333333333)"><circle cx="3" cy="3" r="3"/></g>
<g transform="translate(934.66666666667,294.66666666667) scale(5.4933333333333)"><circle cx="3" cy="3" r="3"/></g>
<g transform="translate(70.666666666667,326.66666666667) scale(5.4933333333333)"><circle cx="3" cy="3" r="3"/></g>
<g transform="translate(134.66666666667,326.66666666667) scale(5.4933333333333)"><circle cx="3" cy="3" r="3"/></g>
<g transform="translate(326.66666666667,326.66666666667) scale(5.4933333333333)"><circle cx="3" cy="3" r="3"/></g>
<g transform="translate(358.66666666667,326.66666666667) scale(5.4933333333333)"><circle cx="3" cy="3" r="3"/></g>
<g transform="translate(390.66666666667,326.66666666667) scale(5.4933333333333)"><circle cx="3" cy="3" r="3"/></g>
<g transform="translate(422.66666666667,326.66666666667) scale(5.4933333333333)"><circle cx="3" cy="3" r="3"/></g>
<g transform="translate(518.66666666667,326.66666666667) scale(5.4933333333333)"><circle cx="3" cy="3" r="3"/></g>
<g transform="translate(550.66666666667,326.66666666667) scale(5.4933333333333)"><circle cx="3" cy="3" r="3"/></g>
<g transform="translate(582.66666666667,326.66666666667) scale(5.4933333333333)"><circle cx="3" cy="3" r="3"/></g>
<g transform="translate(710.66666666667,326.66666666667) scale(5.4933333333333)"><circle cx="3" cy="3" r="3"/></g>
<g transform="translate(742.66666666667,326.66666666667) scale(5.4933333333333)"><circle cx="3" cy="3" r="3"/></g>
<g transform="translate(774.66666666667,326.66666666667) scale(5.4933333333333)"><circle cx="3" cy="3" r="3"/></g>
<g transform="translate(806.66666666667,326.66666666667) scale(5.4933333333333)"><circle cx="3" cy="3" r="3"/></g>
<g transform="translate(838.66666666667,326.66666666667) scale(5.4933333333333)"><circle cx="3" cy="3" r="3"/></g>
<g transform="translate(870.66666666667,326.66666666667) scale(5.4933333333333)"><circle cx="3" cy="3" r="3"/></g>
<g transform="translate(934.66666666667,326.66666666667) scale(5.4933333333333)"><circle cx="3" cy="3" r="3"/></g>
<g transform="translate(70.666666666667,358.66666666667) scale(5.4933333333333)"><circle cx="3" cy="3" r="3"/></g>
<g transform="translate(134.66666666667,358.66666666667) scale(5.4933333333333)"><circle cx="3" cy="3" r="3"/></g>
<g transform="translate(166.66666666667,358.66666666667) scale(5.4933333333333)"><circle cx="3" cy="3" r="3"/></g>
<g transform="translate(198.66666666667,358.66666666667) scale(5.4933333333333)"><circle cx="3" cy="3" r="3"/></g>
<g transform="translate(230.66666666667,358.66666666667) scale(5.4933333333333)"><circle cx="3" cy="3" r="3"/></g>
<g transform="translate(358.66666666667,358.66666666667) scale(5.4933333333333)"><circle cx="3" cy="3" r="3"/></g>
<g transform="translate(422.66666666667,358.66666666667) scale(5.4933333333333)"><circle cx="3" cy="3" r="3"/></g>
<g transform="translate(454.66666666667,358.66666666667) scale(5.4933333333333)"><circle cx="3" cy="3" r="3"/></g>
<g transform="translate(486.66666666667,358.66666666667) scale(5.4933333333333)"><circle cx="3" cy="3" r="3"/></g>
<g transform="translate(518.66666666667,358.66666666667) scale(5.4933333333333)"><circle cx="3" cy="3" r="3"/></g>
<g transform="translate(710.66666666667,358.66666666667) scale(5.4933333333333)"><circle cx="3" cy="3" r="3"/></g>
<g transform="translate(742.66666666667,358.66666666667) scale(5.4933333333333)"><circle cx="3" cy="3" r="3"/></g>
<g transform="translate(806.66666666667,358.66666666667) scale(5.4933333333333)"><circle cx="3" cy="3" r="3"/></g>
<g transform="translate(870.66666666667,358.66666666667) scale(5.4933333333333)"><circle cx="3" cy="3" r="3"/></g>
<g transform="translate(102.66666666667,390.66666666667) scale(5.4933333333333)"><circle cx="3" cy="3" r="3"/></g>
<g transform="translate(134.66666666667,390.66666666667) scale(5.4933333333333)"><circle cx="3" cy="3" r="3"/></g>
<g transform="translate(294.66666666667,390.66666666667) scale(5.4933333333333)"><circle cx="3" cy="3" r="3"/></g>
<g transform="translate(326.66666666667,390.66666666667) scale(5.4933333333333)"><circle cx="3" cy="3" r="3"/></g>
<g transform="translate(358.66666666667,390.66666666667) scale(5.4933333333333)"><circle cx="3" cy="3" r="3"/></g>
<g transform="translate(390.66666666667,390.66666666667) scale(5.4933333333333)"><circle cx="3" cy="3" r="3"/></g>
<g transform="translate(518.66666666667,390.66666666667) scale(5.4933333333333)"><circle cx="3" cy="3" r="3"/></g>
<g transform="translate(582.66666666667,390.66666666667) scale(5.4933333333333)"><circle cx="3" cy="3" r="3"/></g>
<g transform="translate(646.66666666667,390.66666666667) scale(5.4933333333333)"><circle cx="3" cy="3" r="3"/></g>
<g transform="translate(678.66666666667,390.66666666667) scale(5.4933333333333)"><circle cx="3" cy="3" r="3"/></g>
<g transform="translate(710.66666666667,390.66666666667) scale(5.4933333333333)"><circle cx="3" cy="3" r="3"/></g>
<g transform="translate(742.66666666667,390.66666666667) scale(5.4933333333333)"><circle cx="3" cy="3" r="3"/></g>
<g transform="translate(806.66666666667,390.66666666667) scale(5.4933333333333)"><circle cx="3" cy="3" r="3"/></g>
<g transform="translate(838.66666666667,390.66666666667) scale(5.4933333333333)"><circle cx="3" cy="3" r="3"/></g>
<g transform="translate(902.66666666667,390.66666666667) scale(5.4933333333333)"><circle cx="3" cy="3" r="3"/></g>
<g transform="translate(70.666666666667,422.66666666667) scale(5.4933333333333)"><circle cx="3" cy="3" r="3"/></g>
<g transform="translate(102.66666666667,422.66666666667) scale(5.4933333333333)"><circle cx="3" cy="3" r="3"/></g>
<g transform="translate(134.66666666667,422.66666666667) scale(5.4933333333333)"><circle cx="3" cy="3" r="3"/></g>
<g transform="translate(166.66666666667,422.66666666667) scale(5.4933333333333)"><circle cx="3" cy="3" r="3"/></g>
<g transform="translate(198.66666666667,422.66666666667) scale(5.4933333333333)"><circle cx="3" cy="3" r="3"/></g>
<g transform="translate(230.66666666667,422.66666666667) scale(5.4933333333333)"><circle cx="3" cy="3" r="3"/></g>
<g transform="translate(262.66666666667,422.66666666667) scale(5.4933333333333)"><circle cx="3" cy="3" r="3"/></g>
<g transform="translate(294.66666666667,422.66666666667) scale(5.4933333333333)"><circle cx="3" cy="3" r="3"/></g>
<g transform="translate(390.66666666667,422.66666666667) scale(5.4933333333333)"><circle cx="3" cy="3" r="3"/></g>
<g transform="translate(454.66666666667,422.66666666667) scale(5.4933333333333)"><circle cx="3" cy="3" r="3"/></g>
<g transform="translate(486.66666666667,422.66666666667) scale(5.4933333333333)"><circle cx="3" cy="3" r="3"/></g>
<g transform="translate(550.66666666667,422.66666666667) scale(5.4933333333333)"><circle cx="3" cy="3" r="3"/></g>
<g transform="translate(678.66666666667,422.66666666667) scale(5.4933333333333)"><circle cx="3" cy="3" r="3"/></g>
<g transform="translate(710.66666666667,422.66666666667) scale(5.4933333333333)"><circle cx="3" cy="3" r="3"/></g>
<g transform="translate(774.66666666667,422.66666666667) scale(5.4933333333333)"><circle cx="3" cy="3" r="3"/></g>
<g transform="translate(870.66666666667,422.66666666667) scale(5.4933333333333)"><circle cx="3" cy="3" r="3"/></g>
<g transform="translate(902.66666666667,422.66666666667) scale(5.4933333333333)"><circle cx="3" cy="3" r="3"/></g>
<g transform="translate(934.66666666667,422.66666666667) scale(5.4933333333333)"><circle cx="3" cy="3" r="3"/></g>
<g transform="translate(102.66666666667,454.66666666667) scale(5.4933333333333)"><circle cx="3" cy="3" r="3"/></g>
<g transform="translate(134.66666666667,454.66666666667) scale(5.4933333333333)"><circle cx="3" cy="3" r="3"/></g>
<g transform="translate(166.66666666667,454.66666666667) scale(5.4933333333333)"><circle cx="3" cy="3" r="3"/></g>
<g transform="translate(198.66666666667,454.66666666667) scale(5.4933333333333)"><circle cx="3" cy="3" r="3"/></g>
<g transform="translate(262.66666666667,454.66666666667) scale(5.4933333333333)"><circle cx="3" cy="3" r="3"/></g>
<g transform="translate(326.66666666667,454.66666666667) scale(5.4933333333333)"><circle cx="3" cy="3" r="3"/></g>
<g transform="translate(358.66666666667,454.66666666667) scale(5.4933333333333)"><circle cx="3" cy="3" r="3"/></g>
<g transform="translate(422.66666666667,454.66666666667) scale(5.4933333333333)"><circle cx="3" cy="3" r="3"/></g>
<g transform="translate(518.66666666667,454.66666666667) scale(5.4933333333333)"><circle cx="3" cy="3" r="3"/></g>
<g transform="translate(582.66666666667,454.66666666667) scale(5.4933333333333)"><circle cx="3" cy="3" r="3"/></g>
<g transform="translate(614.66666666667,454.66666666667) scale(5.4933333333333)"><circle cx="3" cy="3" r="3"/></g>
<g transform="translate(646.66666666667,454.66666666667) scale(5.4933333333333)"><circle cx="3" cy="3" r="3"/></g>
<g transform="translate(678.66666666667,454.66666666667) scale(5.4933333333333)"><circle cx="3" cy="3" r="3"/></g>
<g transform="translate(710.66666666667,454.66666666667) scale(5.4933333333333)"><circle cx="3" cy="3" r="3"/></g>
<g transform="translate(742.66666666667,454.66666666667) scale(5.4933333333333)"><circle cx="3" cy="3" r="3"/></g>
<g transform="translate(806.66666666667,454.66666666667) scale(5.4933333333333)"><circle cx="3" cy="3" r="3"/></g>
<g transform="translate(838.66666666667,454.66666666667) scale(5.4933333333333)"><circle cx="3" cy="3" r="3"/></g>
<g transform="translate(902.66666666667,454.66666666667) scale(5.4933333333333)"><circle cx="3" cy="3" r="3"/></g>
<g transform="translate(934.66666666667,454.66666666667) scale(5.4933333333333)"><circle cx="3" cy="3" r="3"/></g>
<g transform="translate(166.66666666667,486.66666666667) scale(5.4933333333333)"><circle cx="3" cy="3" r="3"/></g>
<g transform="translate(198.66666666667,486.66666666667) scale(5.4933333333333)"><circle cx="3" cy="3" r="3"/></g>
<g transform="translate(230.66666666667,486.66666666667) scale(5.4933333333333)"><circle cx="3" cy="3" r="3"/></g>
<g transform="translate(294.66666666667,486.66666666667) scale(5.4933333333333)"><circle cx="3" cy="3" r="3"/></g>
<g transform="translate(326.66666666667,486.66666666667) scale(5.4933333333333)"><circle cx="3" cy="3" r="3"/></g>
<g transform="translate(358.66666666667,486.66666666667) scale(5.4933333333333)"><circle cx="3" cy="3" r="3"/></g>
<g transform="translate(422.66666666667,486.66666666667) scale(5.4933333333333)"><circle cx="3" cy="3" r="3"/></g>
<g transform="translate(678.66666666667,486.66666666667) scale(5.4933333333333)"><circle cx="3" cy="3" r="3"/></g>
<g transform="translate(742.66666666667,486.66666666667) scale(5.4933333333333)"><circle cx="3" cy="3" r="3"/></g>
<g transform="translate(774.66666666667,486.66666666667) scale(5.4933333333333)"><circle cx="3" cy="3" r="3"/></g>
<g transform="translate(38.666666666667,518.66666666667) scale(5.4933333333333)"><circle cx="3" cy="3" r="3"/></g>
<g transform="translate(70.666666666667,518.66666666667) scale(5.4933333333333)"><circle cx="3" cy="3" r="3"/></g>
<g transform="translate(102.66666666667,518.66666666667) scale(5.4933333333333)"><circle cx="3" cy="3" r="3"/></g>
<g transform="translate(198.66666666667,518.66666666667) scale(5.4933333333333)"><circle cx="3" cy="3" r="3"/></g>
<g transform="translate(262.66666666667,518.66666666667) scale(5.4933333333333)"><circle cx="3" cy="3" r="3"/></g>
<g transform="translate(294.66666666667,518.66666666667) scale(5.4933333333333)"><circle cx="3" cy="3" r="3"/></g>
<g transform="translate(422.66666666667,518.66666666667) scale(5.4933333333333)"><circle cx="3" cy="3" r="3"/></g>
<g transform="translate(518.66666666667,518.66666666667) scale(5.4933333333333)"><circle cx="3" cy="3" r="3"/></g>
<g transform="translate(710.66666666667,518.66666666667) scale(5.4933333333333)"><circle cx="3" cy="3" r="3"/></g>
<g transform="translate(806.66666666667,518.66666666667) scale(5.4933333333333)"><circle cx="3" cy="3" r="3"/></g>
<g transform="translate(838.66666666667,518.66666666667) scale(5.4933333333333)"><circle cx="3" cy="3" r="3"/></g>
<g transform="translate(38.666666666667,550.66666666667) scale(5.4933333333333)"><circle cx="3" cy="3" r="3"/></g>
<g transform="translate(70.666666666667,550.66666666667) scale(5.4933333333333)"><circle cx="3" cy="3" r="3"/></g>
<g transform="translate(102.66666666667,550.66666666667) scale(5.4933333333333)"><circle cx="3" cy="3" r="3"/></g>
<g transform="translate(166.66666666667,550.66666666667) scale(5.4933333333333)"><circle cx="3" cy="3" r="3"/></g>
<g transform="translate(198.66666666667,550.66666666667) scale(5.4933333333333)"><circle cx="3" cy="3" r="3"/></g>
<g transform="translate(230.66666666667,550.66666666667) scale(5.4933333333333)"><circle cx="3" cy="3" r="3"/></g>
<g transform="translate(262.66666666667,550.66666666667) scale(5.4933333333333)"><circle cx="3" cy="3" r="3"/></g>
<g transform="translate(294.66666666667,550.66666666667) scale(5.4933333333333)"><circle cx="3" cy="3" r="3"/></g>
<g transform="translate(326.66666666667,550.66666666667) scale(5.4933333333333)"><circle cx="3" cy="3" r="3"/></g>
<g transform="translate(390.66666666667,550.66666666667) scale(5.4933333333333)"><circle cx="3" cy="3" r="3"/></g>
<g transform="translate(454.66666666667,550.66666666667) scale(5.4933333333333)"><circle cx="3" cy="3" r="3"/></g>
<g transform="translate(550.66666666667,550.66666666667) scale(5.4933333333333)"><circle cx="3" cy="3" r="3"/></g>
<g transform="translate(582.66666666667,550.66666666667) scale(5.4933333333333)"><circle cx="3" cy="3" r="3"/></g>
<g transform="translate(614.66666666667,550.66666666667) scale(5.4933333333333)"><circle cx="3" cy="3" r="3"/></g>
<g transform="translate(678.66666666667,550.66666666667) scale(5.4933333333333)"><circle cx="3" cy="3" r="3"/></g>
<g transform="translate(774.66666666667,550.66666666667) scale(5.4933333333333)"><circle cx="3" cy="3" r="3"/></g>
<g transform="translate(838.66666666667,550.66666666667) scale(5.4933333333333)"><circle cx="3" cy="3" r="3"/></g>
<g transform="translate(870.66666666667,550.66666666667) scale(5.4933333333333)"><circle cx="3" cy="3" r="3"/></g>
<g transform="translate(902.66666666667,550.66666666667) scale(5.4933333333333)"><circle cx="3" cy="3" r="3"/></g>
<g transform="translate(934.66666666667,550.66666666667) scale(5.4933333333333)"><circle cx="3" cy="3" r="3"/></g>
<g transform="translate(38.666666666667,582.66666666667) scale(5.4933333333333)"><circle cx="3" cy="3" r="3"/></g>
<g transform="translate(134.66666666667,582.66666666667) scale(5.4933333333333)"><circle cx="3" cy="3" r="3"/></g>
<g transform="translate(166.66666666667,582.66666666667) scale(5.4933333333333)"><circle cx="3" cy="3" r="3"/></g>
<g transform="translate(198.66666666667,582.66666666667) scale(5.4933333333333)"><circle cx="3" cy="3" r="3"/></g>
<g transform="translate(262.66666666667,582.66666666667) scale(5.4933333333333)"><circle cx="3" cy="3" r="3"/></g>
<g transform="translate(422.66666666667,582.66666666667) scale(5.4933333333333)"><circle cx="3" cy="3" r="3"/></g>
<g transform="translate(518.66666666667,582.66666666667) scale(5.4933333333333)"><circle cx="3" cy="3" r="3"/></g>
<g transform="translate(646.66666666667,582.66666666667) scale(5.4933333333333)"><circle cx="3" cy="3" r="3"/></g>
<g transform="translate(806.66666666667,582.66666666667) scale(5.4933333333333)"><circle cx="3" cy="3" r="3"/></g>
<g transform="translate(870.66666666667,582.66666666667) scale(5.4933333333333)"><circle cx="3" cy="3" r="3"/></g>
<g transform="translate(902.66666666667,582.66666666667) scale(5.4933333333333)"><circle cx="3" cy="3" r="3"/></g>
<g transform="translate(934.66666666667,582.66666666667) scale(5.4933333333333)"><circle cx="3" cy="3" r="3"/></g>
<g transform="translate(38.666666666667,614.66666666667) scale(5.4933333333333)"><circle cx="3" cy="3" r="3"/></g>
<g transform="translate(102.66666666667,614.66666666667) scale(5.4933333333333)"><circle cx="3" cy="3" r="3"/></g>
<g transform="translate(134.66666666667,614.66666666667) scale(5.4933333333333)"><circle cx="3" cy="3" r="3"/></g>
<g transform="translate(166.66666666667,614.66666666667) scale(5.4933333333333)"><circle cx="3" cy="3" r="3"/></g>
<g transform="translate(198.66666666667,614.66666666667) scale(5.4933333333333)"><circle cx="3" cy="3" r="3"/></g>
<g transform="translate(230.66666666667,614.66666666667) scale(5.4933333333333)"><circle cx="3" cy="3" r="3"/></g>
<g transform="translate(326.66666666667,614.66666666667) scale(5.4933333333333)"><circle cx="3" cy="3" r="3"/></g>
<g transform="translate(390.66666666667,614.66666666667) scale(5.4933333333333)"><circle cx="3" cy="3" r="3"/></g>
<g transform="translate(422.66666666667,614.66666666667) scale(5.4933333333333)"><circle cx="3" cy="3" r="3"/></g>
<g transform="translate(454.66666666667,614.66666666667) scale(5.4933333333333)"><circle cx="3" cy="3" r="3"/></g>
<g transform="translate(614.66666666667,614.66666666667) scale(5.4933333333333)"><circle cx="3" cy="3" r="3"/></g>
<g transform="translate(678.66666666667,614.66666666667) scale(5.4933333333333)"><circle cx="3" cy="3" r="3"/></g>
<g transform="translate(742.66666666667,614.66666666667) scale(5.4933333333333)"><circle cx="3" cy="3" r="3"/></g>
<g transform="translate(774.66666666667,614.66666666667) scale(5.4933333333333)"><circle cx="3" cy="3" r="3"/></g>
<g transform="translate(806.66666666667,614.66666666667) scale(5.4933333333333)"><circle cx="3" cy="3" r="3"/></g>
<g transform="translate(838.66666666667,614.66666666667) scale(5.4933333333333)"><circle cx="3" cy="3" r="3"/></g>
<g transform="translate(870.66666666667,614.66666666667) scale(5.4933333333333)"><circle cx="3" cy="3" r="3"/></g>
<g transform="translate(38.666666666667,646.66666666667) scale(5.4933333333333)"><circle cx="3" cy="3" r="3"/></g>
<g transform="translate(166.66666666667,646.66666666667) scale(5.4933333333333)"><circle cx="3" cy="3" r="3"/></g>
<g transform="translate(262.66666666667,646.66666666667) scale(5.4933333333333)"><circle cx="3" cy="3" r="3"/></g>
<g transform="translate(294.66666666667,646.66666666667) scale(5.4933333333333)"><circle cx="3" cy="3" r="3"/></g>
<g transform="translate(358.66666666667,646.66666666667) scale(5.4933333333333)"><circle cx="3" cy="3" r="3"/></g>
<g transform="translate(390.66666666667,646.66666666667) scale(5.4933333333333)"><circle cx="3" cy="3" r="3"/></g>
<g transform="translate(422.66666666667,646.66666666667) scale(5.4933333333333)"><circle cx="3" cy="3" r="3"/></g>
<g transform="translate(454.66666666667,646.66666666667) scale(5.4933333333333)"><circle cx="3" cy="3" r="3"/></g>
<g transform="translate(486.66666666667,646.66666666667) scale(5.4933333333333)"><circle cx="3" cy="3" r="3"/></g>
<g transform="translate(518.66666666667,646.66666666667) scale(5.4933333333333)"><circle cx="3" cy="3" r="3"/></g>
<g transform="translate(550.66666666667,646.66666666667) scale(5.4933333333333)"><circle cx="3" cy="3" r="3"/></g>
<g transform="translate(646.66666666667,646.66666666667) scale(5.4933333333333)"><circle cx="3" cy="3" r="3"/></g>
<g transform="translate(678.66666666667,646.66666666667) scale(5.4933333333333)"><circle cx="3" cy="3" r="3"/></g>
<g transform="translate(742.66666666667,646.66666666667) scale(5.4933333333333)"><circle cx="3" cy="3" r="3"/></g>
<g transform="translate(902.66666666667,646.66666666667) scale(5.4933333333333)"><circle cx="3" cy="3" r="3"/></g>
<g transform="translate(934.66666666667,646.66666666667) scale(5.4933333333333)"><circle cx="3" cy="3" r="3"/></g>
<g transform="translate(38.666666666667,678.66666666667) scale(5.4933333333333)"><circle cx="3" cy="3" r="3"/></g>
<g transform="translate(134.66666666667,678.66666666667) scale(5.4933333333333)"><circle cx="3" cy="3" r="3"/></g>
<g transform="translate(198.66666666667,678.66666666667) scale(5.4933333333333)"><circle cx="3" cy="3" r="3"/></g>
<g transform="translate(230.66666666667,678.66666666667) scale(5.4933333333333)"><circle cx="3" cy="3" r="3"/></g>
<g transform="translate(294.66666666667,678.66666666667) scale(5.4933333333333)"><circle cx="3" cy="3" r="3"/></g>
<g transform="translate(422.66666666667,678.66666666667) scale(5.4933333333333)"><circle cx="3" cy="3" r="3"/></g>
<g transform="translate(486.66666666667,678.66666666667) scale(5.4933333333333)"><circle cx="3" cy="3" r="3"/></g>
<g transform="translate(518.66666666667,678.66666666667) scale(5.4933333333333)"><circle cx="3" cy="3" r="3"/></g>
<g transform="translate(550.66666666667,678.66666666667) scale(5.4933333333333)"><circle cx="3" cy="3" r="3"/></g>
<g transform="translate(678.66666666667,678.66666666667) scale(5.4933333333333)"><circle cx="3" cy="3" r="3"/></g>
<g transform="translate(710.66666666667,678.66666666667) scale(5.4933333333333)"><circle cx="3" cy="3" r="3"/></g>
<g transform="translate(742.66666666667,678.66666666667) scale(5.4933333333333)"><circle cx="3" cy="3" r="3"/></g>
<g transform="translate(774.66666666667,678.66666666667) scale(5.4933333333333)"><circle cx="3" cy="3" r="3"/></g>
<g transform="translate(806.66666666667,678.66666666667) scale(5.4933333333333)"><circle cx="3" cy="3" r="3"/></g>
<g transform="translate(870.66666666667,678.66666666667) scale(5.4933333333333)"><circle cx="3" cy="3" r="3"/></g>
<g transform="translate(294.66666666667,710.66666666667) scale(5.4933333333333)"><circle cx="3" cy="3" r="3"/></g>
<g transform="translate(326.66666666667,710.66666666667) scale(5.4933333333333)"><circle cx="3" cy="3" r="3"/></g>
<g transform="translate(358.66666666667,710.66666666667) scale(5.4933333333333)"><circle cx="3" cy="3" r="3"/></g>
<g transform="translate(390.66666666667,710.66666666667) scale(5.4933333333333)"><circle cx="3" cy="3" r="3"/></g>
<g transform="translate(422.66666666667,710.66666666667) scale(5.4933333333333)"><circle cx="3" cy="3" r="3"/></g>
<g transform="translate(486.66666666667,710.66666666667) scale(5.4933333333333)"><circle cx="3" cy="3" r="3"/></g>
<g transform="translate(518.66666666667,710.66666666667) scale(5.4933333333333)"><circle cx="3" cy="3" r="3"/></g>
<g transform="translate(614.66666666667,710.66666666667) scale(5.4933333333333)"><circle cx="3" cy="3" r="3"/></g>
<g transform="translate(646.66666666667,710.66666666667) scale(5.4933333333333)"><circle cx="3" cy="3" r="3"/></g>
<g transform="translate(678.66666666667,710.66666666667) scale(5.4933333333333)"><circle cx="3" cy="3" r="3"/></g>
<g transform="translate(806.66666666667,710.66666666667) scale(5.4933333333333)"><circle cx="3" cy="3" r="3"/></g>
<g transform="translate(838.66666666667,710.66666666667) scale(5.4933333333333)"><circle cx="3" cy="3" r="3"/></g>
<g transform="translate(902.66666666667,710.66666666667) scale(5.4933333333333)"><circle cx="3" cy="3" r="3"/></g>
<g transform="translate(934.66666666667,710.66666666667) scale(5.4933333333333)"><circle cx="3" cy="3" r="3"/></g>
<g transform="translate(326.66666666667,742.66666666667) scale(5.4933333333333)"><circle cx="3" cy="3" r="3"/></g>
<g transform="translate(390.66666666667,742.66666666667) scale(5.4933333333333)"><circle cx="3" cy="3" r="3"/></g>
<g transform="translate(454.66666666667,742.66666666667) scale(5.4933333333333)"><circle cx="3" cy="3" r="3"/></g>
<g transform="translate(518.66666666667,742.66666666667) scale(5.4933333333333)"><circle cx="3" cy="3" r="3"/></g>
<g transform="translate(582.66666666667,742.66666666667) scale(5.4933333333333)"><circle cx="3" cy="3" r="3"/></g>
<g transform="translate(646.66666666667,742.66666666667) scale(5.4933333333333)"><circle cx="3" cy="3" r="3"/></g>
<g transform="translate(678.66666666667,742.66666666667) scale(5.4933333333333)"><circle cx="3" cy="3" r="3"/></g>
<g transform="translate(742.66666666667,742.66666666667) scale(5.4933333333333)"><circle cx="3" cy="3" r="3"/></g>
<g transform="translate(806.66666666667,742.66666666667) scale(5.4933333333333)"><circle cx="3" cy="3" r="3"/></g>
<g transform="translate(326.66666666667,774.66666666667) scale(5.4933333333333)"><circle cx="3" cy="3" r="3"/></g>
<g transform="translate(454.66666666667,774.66666666667) scale(5.4933333333333)"><circle cx="3" cy="3" r="3"/></g>
<g transform="translate(486.66666666667,774.66666666667) scale(5.4933333333333)"><circle cx="3" cy="3" r="3"/></g>
<g transform="translate(518.66666666667,774.66666666667) scale(5.4933333333333)"><circle cx="3" cy="3" r="3"/></g>
<g transform="translate(646.66666666667,774.66666666667) scale(5.4933333333333)"><circle cx="3" cy="3" r="3"/></g>
<g transform="translate(678.66666666667,774.66666666667) scale(5.4933333333333)"><circle cx="3" cy="3" r="3"/></g>
<g transform="translate(806.66666666667,774.66666666667) scale(5.4933333333333)"><circle cx="3" cy="3" r="3"/></g>
<g transform="translate(838.66666666667,774.66666666667) scale(5.4933333333333)"><circle cx="3" cy="3" r="3"/></g>
<g transform="translate(902.66666666667,774.66666666667) scale(5.4933333333333)"><circle cx="3" cy="3" r="3"/></g>
<g transform="translate(294.66666666667,806.66666666667) scale(5.4933333333333)"><circle cx="3" cy="3" r="3"/></g>
<g transform="translate(486.66666666667,806.66666666667) scale(5.4933333333333)"><circle cx="3" cy="3" r="3"/></g>
<g transform="translate(518.66666666667,806.66666666667) scale(5.4933333333333)"><circle cx="3" cy="3" r="3"/></g>
<g transform="translate(550.66666666667,806.66666666667) scale(5.4933333333333)"><circle cx="3" cy="3" r="3"/></g>
<g transform="translate(582.66666666667,806.66666666667) scale(5.4933333333333)"><circle cx="3" cy="3" r="3"/></g>
<g transform="translate(678.66666666667,806.66666666667) scale(5.4933333333333)"><circle cx="3" cy="3" r="3"/></g>
<g transform="translate(710.66666666667,806.66666666667) scale(5.4933333333333)"><circle cx="3" cy="3" r="3"/></g>
<g transform="translate(742.66666666667,806.66666666667) scale(5.4933333333333)"><circle cx="3" cy="3" r="3"/></g>
<g transform="translate(774.66666666667,806.66666666667) scale(5.4933333333333)"><circle cx="3" cy="3" r="3"/></g>
<g transform="translate(806.66666666667,806.66666666667) scale(5.4933333333333)"><circle cx="3" cy="3" r="3"/></g>
<g transform="translate(838.66666666667,806.66666666667) scale(5.4933333333333)"><circle cx="3" cy="3" r="3"/></g>
<g transform="translate(870.66666666667,806.66666666667) scale(5.4933333333333)"><circle cx="3" cy="3" r="3"/></g>
<g transform="translate(934.66666666667,806.66666666667) scale(5.4933333333333)"><circle cx="3" cy="3" r="3"/></g>
<g transform="translate(294.66666666667,838.66666666667) scale(5.4933333333333)"><circle cx="3" cy="3" r="3"/></g>
<g transform="translate(326.66666666667,838.66666666667) scale(5.4933333333333)"><circle cx="3" cy="3" r="3"/></g>
<g transform="translate(390.66666666667,838.66666666667) scale(5.4933333333333)"><circle cx="3" cy="3" r="3"/></g>
<g transform="translate(422.66666666667,838.66666666667) scale(5.4933333333333)"><circle cx="3" cy="3" r="3"/></g>
<g transform="translate(486.66666666667,838.66666666667) scale(5.4933333333333)"><circle cx="3" cy="3" r="3"/></g>
<g transform="translate(518.66666666667,838.66666666667) scale(5.4933333333333)"><circle cx="3" cy="3" r="3"/></g>
<g transform="translate(550.66666666667,838.66666666667) scale(5.4933333333333)"><circle cx="3" cy="3" r="3"/></g>
<g transform="translate(646.66666666667,838.66666666667) scale(5.4933333333333)"><circle cx="3" cy="3" r="3"/></g>
<g transform="translate(678.66666666667,838.66666666667) scale(5.4933333333333)"><circle cx="3" cy="3" r="3"/></g>
<g transform="translate(710.66666666667,838.66666666667) scale(5.4933333333333)"><circle cx="3" cy="3" r="3"/></g>
<g transform="translate(774.66666666667,838.66666666667) scale(5.4933333333333)"><circle cx="3" cy="3" r="3"/></g>
<g transform="translate(838.66666666667,838.66666666667) scale(5.4933333333333)"><circle cx="3" cy="3" r="3"/></g>
<g transform="translate(870.66666666667,838.66666666667) scale(5.4933333333333)"><circle cx="3" cy="3" r="3"/></g>
<g transform="translate(294.66666666667,870.66666666667) scale(5.4933333333333)"><circle cx="3" cy="3" r="3"/></g>
<g transform="translate(326.66666666667,870.66666666667) scale(5.4933333333333)"><circle cx="3" cy="3" r="3"/></g>
<g transform="translate(422.66666666667,870.66666666667) scale(5.4933333333333)"><circle cx="3" cy="3" r="3"/></g>
<g transform="translate(486.66666666667,870.66666666667) scale(5.4933333333333)"><circle cx="3" cy="3" r="3"/></g>
<g transform="translate(550.66666666667,870.66666666667) scale(5.4933333333333)"><circle cx="3" cy="3" r="3"/></g>
<g transform="translate(614.66666666667,870.66666666667) scale(5.4933333333333)"><circle cx="3" cy="3" r="3"/></g>
<g transform="translate(646.66666666667,870.66666666667) scale(5.4933333333333)"><circle cx="3" cy="3" r="3"/></g>
<g transform="translate(678.66666666667,870.66666666667) scale(5.4933333333333)"><circle cx="3" cy="3" r="3"/></g>
<g transform="translate(710.66666666667,870.66666666667) scale(5.4933333333333)"><circle cx="3" cy="3" r="3"/></g>
<g transform="translate(742.66666666667,870.66666666667) scale(5.4933333333333)"><circle cx="3" cy="3" r="3"/></g>
<g transform="translate(774.66666666667,870.66666666667) scale(5.4933333333333)"><circle cx="3" cy="3" r="3"/></g>
<g transform="translate(806.66666666667,870.66666666667) scale(5.4933333333333)"><circle cx="3" cy="3" r="3"/></g>
<g transform="translate(838.66666666667,870.66666666667) scale(5.4933333333333)"><circle cx="3" cy="3" r="3"/></g>
<g transform="translate(870.66666666667,870.66666666667) scale(5.4933333333333)"><circle cx="3" cy="3" r="3"/></g>
<g transform="translate(902.66666666667,870.66666666667) scale(5.4933333333333)"><circle cx="3" cy="3" r="3"/></g>
<g transform="translate(358.66666666667,902.66666666667) scale(5.4933333333333)"><circle cx="3" cy="3" r="3"/></g>
<g transform="translate(390.66666666667,902.66666666667) scale(5.4933333333333)"><circle cx="3" cy="3" r="3"/></g>
<g transform="translate(454.66666666667,902.66666666667) scale(5.4933333333333)"><circle cx="3" cy="3" r="3"/></g>
<g transform="translate(486.66666666667,902.66666666667) scale(5.4933333333333)"><circle cx="3" cy="3" r="3"/></g>
<g transform="translate(646.66666666667,902.66666666667) scale(5.4933333333333)"><circle cx="3" cy="3" r="3"/></g>
<g transform="translate(678.66666666667,902.66666666667) scale(5.4933333333333)"><circle cx="3" cy="3" r="3"/></g>
<g transform="translate(710.66666666667,902.66666666667) scale(5.4933333333333)"><circle cx="3" cy="3" r="3"/></g>
<g transform="translate(806.66666666667,902.66666666667) scale(5.4933333333333)"><circle cx="3" cy="3" r="3"/></g>
<g transform="translate(902.66666666667,902.66666666667) scale(5.4933333333333)"><circle cx="3" cy="3" r="3"/></g>
<g transform="translate(358.66666666667,934.66666666667) scale(5.4933333333333)"><circle cx="3" cy="3" r="3"/></g>
<g transform="translate(518.66666666667,934.66666666667) scale(5.4933333333333)"><circle cx="3" cy="3" r="3"/></g>
<g transform="translate(550.66666666667,934.66666666667) scale(5.4933333333333)"><circle cx="3" cy="3" r="3"/></g>
<g transform="translate(582.66666666667,934.66666666667) scale(5.4933333333333)"><circle cx="3" cy="3" r="3"/></g>
<g transform="translate(646.66666666667,934.66666666667) scale(5.4933333333333)"><circle cx="3" cy="3" r="3"/></g>
<g transform="translate(806.66666666667,934.66666666667) scale(5.4933333333333)"><circle cx="3" cy="3" r="3"/></g>
<g transform="translate(838.66666666667,934.66666666667) scale(5.4933333333333)"><circle cx="3" cy="3" r="3"/></g>
<g transform="translate(870.66666666667,934.66666666667) scale(5.4933333333333)"><circle cx="3" cy="3" r="3"/></g>
</g></g></mask></defs>
<rect width="930.77111111111" height="930.77111111111" fill="#f6dbac" x="41.888888888889" y="41.888888888889" />
<g fill="#259fa5" transform="scale(41.888888888889)"></g>
<rect x="0" y="0" width="1005.3333333333" height="1047.2222222222" mask="url(#qrmask)" fill="#176e82" />
<g><g transform="translate(38.666666666667,38.666666666667)"  fill="#176e82"><g transform="scale(16)"><path d="M0,7L0,7c0,3.9,3.1,7,7,7h0c3.9,0,7-3.1,7-7v0c0-3.9-3.1-7-7-7h0C3.1,0,0,3.1,0,7z M7,12L7,12c-2.8,0-5-2.2-5-5v0 c0-2.8,2.2-5,5-5h0c2.8,0,5,2.2,5,5v0C12,9.8,9.8,12,7,12z"/></g></g>
<g transform="translate(102.66666666667,102.66666666667)"  fill="#176e82"><g transform="scale(16)"><circle cx="3" cy="3" r="3"/></g></g>
<g transform="translate(742.66666666667,38.666666666667)"  fill="#176e82"><g transform="scale(16)"><path d="M0,7L0,7c0,3.9,3.1,7,7,7h0c3.9,0,7-3.1,7-7v0c0-3.9-3.1-7-7-7h0C3.1,0,0,3.1,0,7z M7,12L7,12c-2.8,0-5-2.2-5-5v0 c0-2.8,2.2-5,5-5h0c2.8,0,5,2.2,5,5v0C12,9.8,9.8,12,7,12z"/></g></g>
<g transform="translate(806.66666666667,102.66666666667)"  fill="#176e82"><g transform="scale(16)"><circle cx="3" cy="3" r="3"/></g></g>
<g transform="translate(38.666666666667,742.66666666667)"  fill="#176e82"><g transform="scale(16)"><path d="M0,7L0,7c0,3.9,3.1,7,7,7h0c3.9,0,7-3.1,7-7v0c0-3.9-3.1-7-7-7h0C3.1,0,0,3.1,0,7z M7,12L7,12c-2.8,0-5-2.2-5-5v0 c0-2.8,2.2-5,5-5h0c2.8,0,5,2.2,5,5v0C12,9.8,9.8,12,7,12z"/></g></g>
<g transform="translate(102.66666666667,806.66666666667)"  fill="#176e82"><g transform="scale(16)"><circle cx="3" cy="3" r="3"/></g></g></g>
<text fill="#FFFFFF" font-family="Arial, Helvetica, sans-serif" font-size="0px" text-anchor="middle" x="525.625" y="41.888888888889">TONY&#39;S PORTFOLIO</text></svg>